<svg width="48" height="48" viewBox="0 0 48 48" fill="none" xmlns="http://www.w3.org/2000/svg">
<path opacity="0.25" fill-rule="evenodd" clip-rule="evenodd" d="M23.9999 46.1111C36.457 46.1111 46.5554 36.0126 46.5554 23.5556C46.5554 11.0985 36.457 1 23.9999 1C11.5428 1 1.44434 11.0985 1.44434 23.5556C1.44434 36.0126 11.5428 46.1111 23.9999 46.1111Z" stroke="white" stroke-width="1.93333"/>
<g clip-path="url(#clip0_125_75)">
<path d="M23.65 17.3776C25.694 17.3776 25.936 17.3866 26.7399 17.4224C27.487 17.4553 27.8904 17.5808 28.1593 17.6854C28.5149 17.8229 28.7719 17.9902 29.0379 18.2562C29.3068 18.5251 29.4712 18.7791 29.6086 19.1347C29.7132 19.4037 29.8387 19.8101 29.8716 20.5541C29.9075 21.361 29.9164 21.603 29.9164 23.644C29.9164 25.688 29.9075 25.9301 29.8716 26.7339C29.8387 27.481 29.7132 27.8844 29.6086 28.1533C29.4712 28.5089 29.3038 28.7659 29.0379 29.0319C28.7689 29.3008 28.5149 29.4652 28.1593 29.6027C27.8904 29.7072 27.484 29.8328 26.7399 29.8656C25.933 29.9015 25.691 29.9104 23.65 29.9104C21.606 29.9104 21.364 29.9015 20.5601 29.8656C19.813 29.8328 19.4096 29.7072 19.1407 29.6027C18.7851 29.4652 18.5281 29.2979 18.2621 29.0319C17.9932 28.7629 17.8288 28.5089 17.6914 28.1533C17.5868 27.8844 17.4613 27.478 17.4284 26.7339C17.3925 25.9271 17.3836 25.685 17.3836 23.644C17.3836 21.6 17.3925 21.358 17.4284 20.5541C17.4613 19.8071 17.5868 19.4037 17.6914 19.1347C17.8288 18.7791 17.9962 18.5221 18.2621 18.2562C18.5311 17.9872 18.7851 17.8229 19.1407 17.6854C19.4096 17.5808 19.816 17.4553 20.5601 17.4224C21.364 17.3866 21.606 17.3776 23.65 17.3776ZM23.65 16C21.5731 16 21.3132 16.009 20.4974 16.0448C19.6846 16.0807 19.1257 16.2122 18.6416 16.4004C18.1366 16.5977 17.7093 16.8576 17.285 17.285C16.8576 17.7093 16.5977 18.1366 16.4004 18.6387C16.2122 19.1257 16.0807 19.6816 16.0448 20.4944C16.009 21.3132 16 21.5731 16 23.65C16 25.7269 16.009 25.9868 16.0448 26.8026C16.0807 27.6154 16.2122 28.1743 16.4004 28.6584C16.5977 29.1634 16.8576 29.5907 17.285 30.015C17.7093 30.4394 18.1366 30.7023 18.6387 30.8966C19.1257 31.0848 19.6816 31.2163 20.4944 31.2522C21.3102 31.288 21.5702 31.297 23.647 31.297C25.7239 31.297 25.9838 31.288 26.7997 31.2522C27.6125 31.2163 28.1713 31.0848 28.6554 30.8966C29.1574 30.7023 29.5847 30.4394 30.0091 30.015C30.4334 29.5907 30.6964 29.1634 30.8906 28.6613C31.0789 28.1743 31.2104 27.6184 31.2462 26.8056C31.2821 25.9898 31.291 25.7298 31.291 23.653C31.291 21.5761 31.2821 21.3162 31.2462 20.5004C31.2104 19.6875 31.0789 19.1287 30.8906 18.6446C30.7023 18.1366 30.4424 17.7093 30.015 17.285C29.5907 16.8606 29.1634 16.5977 28.6613 16.4034C28.1743 16.2152 27.6184 16.0837 26.8056 16.0478C25.9868 16.009 25.7269 16 23.65 16Z" fill="white"/>
<path d="M23.65 19.7202C21.4806 19.7202 19.7205 21.4803 19.7205 23.6498C19.7205 25.8193 21.4806 27.5794 23.65 27.5794C25.8195 27.5794 27.5796 25.8193 27.5796 23.6498C27.5796 21.4803 25.8195 19.7202 23.65 19.7202ZM23.65 26.1988C22.2426 26.1988 21.101 25.0573 21.101 23.6498C21.101 22.2423 22.2426 21.1008 23.65 21.1008C25.0575 21.1008 26.1991 22.2423 26.1991 23.6498C26.1991 25.0573 25.0575 26.1988 23.65 26.1988Z" fill="white"/>
<path d="M28.6524 19.5649C28.6524 20.0729 28.24 20.4823 27.735 20.4823C27.227 20.4823 26.8176 20.0699 26.8176 19.5649C26.8176 19.0569 27.23 18.6475 27.735 18.6475C28.24 18.6475 28.6524 19.0598 28.6524 19.5649Z" fill="white"/>
</g>
<defs>
<clipPath id="clip0_125_75">
<rect width="15.3" height="15.3" fill="white" transform="translate(16 16)"/>
</clipPath>
</defs>
</svg>
