<svg width="48" height="48" viewBox="0 0 48 48" fill="none" xmlns="http://www.w3.org/2000/svg">
<path opacity="0.25" fill-rule="evenodd" clip-rule="evenodd" d="M23.5556 46.1111C36.0126 46.1111 46.1111 36.0126 46.1111 23.5556C46.1111 11.0985 36.0126 1 23.5556 1C11.0985 1 1 11.0985 1 23.5556C1 36.0126 11.0985 46.1111 23.5556 46.1111Z" stroke="white" stroke-width="1.93333"/>
<path d="M18.3787 19.002C19.4347 19.002 20.2908 18.1459 20.2908 17.0899C20.2908 16.0338 19.4347 15.1777 18.3787 15.1777C17.3226 15.1777 16.4666 16.0338 16.4666 17.0899C16.4666 18.1459 17.3226 19.002 18.3787 19.002Z" fill="white"/>
<path d="M19.9721 20.2793H16.7852C16.6093 20.2793 16.4666 20.4221 16.4666 20.598V30.1586C16.4666 30.3346 16.6093 30.4773 16.7852 30.4773H19.9721C20.148 30.4773 20.2908 30.3346 20.2908 30.1586V20.598C20.2908 20.4221 20.148 20.2793 19.9721 20.2793Z" fill="white"/>
<path d="M29.4689 19.7486C28.1069 19.282 26.4032 19.6918 25.3814 20.4267C25.3464 20.2897 25.2215 20.1877 25.073 20.1877H21.8861C21.7102 20.1877 21.5674 20.3305 21.5674 20.5064V30.067C21.5674 30.243 21.7102 30.3857 21.8861 30.3857H25.073C25.2489 30.3857 25.3916 30.243 25.3916 30.067V23.1961C25.9066 22.7525 26.5702 22.611 27.1132 22.8417C27.6397 23.0642 27.9412 23.6072 27.9412 24.3307V30.067C27.9412 30.243 28.0839 30.3857 28.2598 30.3857H31.4467C31.6226 30.3857 31.7654 30.243 31.7654 30.067V23.6888C31.7291 21.0698 30.497 20.1004 29.4689 19.7486Z" fill="white"/>
</svg>
