<svg width="41" height="40" viewBox="0 0 41 40" fill="none" xmlns="http://www.w3.org/2000/svg">
<path d="M20.5 40C31.5457 40 40.5 31.0457 40.5 20C40.5 8.9543 31.5457 0 20.5 0C9.4543 0 0.5 8.9543 0.5 20C0.5 31.0457 9.4543 40 20.5 40Z" fill="#F6FFED"/>
<path d="M24.8105 16.0878C24.6373 16.0589 24.4569 16.0517 24.2692 16.0517H17.0526C16.8505 16.0517 16.6557 16.0661 16.468 16.095C16.5691 15.8929 16.7134 15.7053 16.8866 15.5321L19.232 13.1795C20.2207 12.198 21.8228 12.198 22.8115 13.1795L24.0744 14.4568C24.5363 14.9114 24.7816 15.4888 24.8105 16.0878Z" stroke="#E4622E" stroke-width="1.5" stroke-linecap="round" stroke-linejoin="round"/>
<path d="M18.495 24.7117C18.495 25.2529 18.3435 25.7653 18.0764 26.1983C17.5785 27.0354 16.662 27.5983 15.6083 27.5983C14.5547 27.5983 13.6382 27.0354 13.1402 26.1983C12.8732 25.7653 12.7217 25.2529 12.7217 24.7117C12.7217 23.1168 14.0135 21.825 15.6083 21.825C17.2032 21.825 18.495 23.1168 18.495 24.7117Z" stroke="#E4622E" stroke-width="1.5" stroke-miterlimit="10" stroke-linecap="round" stroke-linejoin="round"/>
<path d="M16.685 24.6968H14.5344" stroke="#E4622E" stroke-width="1.5" stroke-miterlimit="10" stroke-linecap="round" stroke-linejoin="round"/>
<path d="M15.6084 23.6432V25.801" stroke="#E4622E" stroke-width="1.5" stroke-miterlimit="10" stroke-linecap="round" stroke-linejoin="round"/>
<path d="M27.8767 19.66V23.2684C27.8767 25.4334 26.4334 26.8767 24.2684 26.8767H17.5063C17.7301 26.6891 17.9249 26.4581 18.0765 26.1983C18.3435 25.7653 18.495 25.2529 18.495 24.7117C18.495 23.1168 17.2032 21.825 15.6084 21.825C14.7424 21.825 13.9702 22.2075 13.4434 22.8065V19.66C13.4434 17.6971 14.6269 16.3259 16.4671 16.095C16.6548 16.0661 16.8496 16.0517 17.0517 16.0517H24.2684C24.456 16.0517 24.6364 16.0589 24.8096 16.0878C26.6715 16.3043 27.8767 17.6827 27.8767 19.66Z" stroke="#E4622E" stroke-width="1.5" stroke-linecap="round" stroke-linejoin="round"/>
<path d="M27.8766 20.0208H25.7116C24.9178 20.0208 24.2683 20.6703 24.2683 21.4641C24.2683 22.258 24.9178 22.9075 25.7116 22.9075H27.8766" stroke="#E4622E" stroke-width="1.5" stroke-linecap="round" stroke-linejoin="round"/>
</svg>
