<svg width="26" height="18" viewBox="0 0 26 18" fill="none" xmlns="http://www.w3.org/2000/svg">
<path d="M25.7319 8.34696C24.5486 5.97793 22.733 3.98243 20.4859 2.58128C18.2388 1.18013 15.6479 0.427949 12.9999 0.407959C10.3519 0.428174 7.76111 1.18045 5.51409 2.58158C3.26706 3.9827 1.45139 5.97807 0.267906 8.34696C0.165604 8.54943 0.112305 8.77311 0.112305 8.99996C0.112305 9.22681 0.165604 9.45049 0.267906 9.65296C1.45121 12.022 3.26684 14.0175 5.51391 15.4186C7.76097 16.8198 10.3519 17.572 12.9999 17.592C15.6479 17.5717 18.2387 16.8195 20.4857 15.4183C22.7327 14.0172 24.5484 12.0218 25.7319 9.65296C25.8342 9.45049 25.8875 9.22681 25.8875 8.99996C25.8875 8.77311 25.8342 8.54943 25.7319 8.34696ZM12.9999 15.447C11.7254 15.447 10.4795 15.069 9.41981 14.3609C8.3601 13.6529 7.53416 12.6465 7.04643 11.469C6.55869 10.2915 6.43108 8.99581 6.67973 7.7458C6.92837 6.49578 7.5421 5.34757 8.44331 4.44636C9.34452 3.54515 10.4927 2.93142 11.7427 2.68278C12.9928 2.43414 14.2884 2.56175 15.4659 3.04948C16.6434 3.53721 17.6498 4.36315 18.3579 5.42286C19.066 6.48257 19.4439 7.72846 19.4439 9.00296C19.4431 10.7115 18.7638 12.3498 17.5554 13.5576C16.347 14.7655 14.7084 15.444 12.9999 15.444V15.447ZM12.9999 4.70696C12.6163 4.71241 12.2352 4.76959 11.8669 4.87696C12.1712 5.28934 12.3175 5.79722 12.2792 6.30831C12.2409 6.8194 12.0205 7.29979 11.6581 7.66219C11.2957 8.0246 10.8153 8.24498 10.3043 8.28329C9.79316 8.3216 9.28529 8.17529 8.87291 7.87096C8.638 8.73617 8.68033 9.65326 8.99393 10.4932C9.30753 11.3331 9.87661 12.0535 10.6211 12.553C11.3656 13.0525 12.2479 13.306 13.144 13.2778C14.0401 13.2496 14.9048 12.9411 15.6164 12.3958C16.328 11.8504 16.8506 11.0956 17.1108 10.2377C17.3709 9.3797 17.3555 8.46176 17.0666 7.61304C16.7778 6.76431 16.23 6.02753 15.5005 5.5064C14.771 4.98527 13.8964 4.70602 12.9999 4.70796V4.70696Z" fill="#FF521D"/>
</svg>
