<svg width="41" height="40" viewBox="0 0 41 40" fill="none" xmlns="http://www.w3.org/2000/svg">
<path d="M20.5 40C31.5457 40 40.5 31.0457 40.5 20C40.5 8.9543 31.5457 0 20.5 0C9.4543 0 0.5 8.9543 0.5 20C0.5 31.0457 9.4543 40 20.5 40Z" fill="#E6F7FF"/>
<path d="M20.6599 21.1033C21.457 21.1033 22.1032 20.4571 22.1032 19.66C22.1032 18.8629 21.457 18.2167 20.6599 18.2167C19.8628 18.2167 19.2166 18.8629 19.2166 19.66C19.2166 20.4571 19.8628 21.1033 20.6599 21.1033Z" stroke="#8989A2" stroke-width="1.5" stroke-linecap="round" stroke-linejoin="round"/>
<path d="M26.4333 23.99C27.3426 22.7848 27.8767 21.2838 27.8767 19.66C27.8767 18.0363 27.3426 16.5352 26.4333 15.33" stroke="#8989A2" stroke-width="1.5" stroke-linecap="round" stroke-linejoin="round"/>
<path d="M14.8867 15.33C13.9774 16.5352 13.4434 18.0363 13.4434 19.66C13.4434 21.2838 13.9774 22.7848 14.8867 23.99" stroke="#8989A2" stroke-width="1.5" stroke-linecap="round" stroke-linejoin="round"/>
<path d="M24.124 22.258C24.6653 21.5364 24.99 20.6343 24.99 19.66C24.99 18.6858 24.6653 17.7837 24.124 17.062" stroke="#8989A2" stroke-width="1.5" stroke-linecap="round" stroke-linejoin="round"/>
<path d="M17.1961 17.062C16.6548 17.7837 16.3301 18.6858 16.3301 19.66C16.3301 20.6343 16.6548 21.5364 17.1961 22.258" stroke="#8989A2" stroke-width="1.5" stroke-linecap="round" stroke-linejoin="round"/>
</svg>
