<svg width="155" height="46" viewBox="0 0 155 46" fill="none" xmlns="http://www.w3.org/2000/svg">
<path d="M10.824 3.352C15.784 3.352 19.592 4.232 22.248 5.992C24.904 7.72 26.232 10.568 26.232 14.536C26.232 18.536 24.888 21.432 22.2 23.224C19.512 24.984 15.672 25.864 10.68 25.864H8.328V37H0.84V4.216C2.472 3.896 4.2 3.672 6.024 3.544C7.848 3.416 9.448 3.352 10.824 3.352ZM11.304 9.736C10.76 9.736 10.216 9.752 9.672 9.784C9.16 9.816 8.712 9.848 8.328 9.88V19.48H10.68C13.272 19.48 15.224 19.128 16.536 18.424C17.848 17.72 18.504 16.408 18.504 14.488C18.504 13.56 18.328 12.792 17.976 12.184C17.656 11.576 17.176 11.096 16.536 10.744C15.928 10.36 15.176 10.104 14.28 9.976C13.384 9.816 12.392 9.736 11.304 9.736ZM90.6521 3.352C95.6121 3.352 99.4201 4.232 102.076 5.992C104.732 7.72 106.06 10.568 106.06 14.536C106.06 18.536 104.716 21.432 102.028 23.224C99.3401 24.984 95.5001 25.864 90.5081 25.864H88.1561V37H80.6681V4.216C82.3001 3.896 84.0281 3.672 85.8521 3.544C87.6761 3.416 89.2761 3.352 90.6521 3.352ZM91.1321 9.736C90.5881 9.736 90.0441 9.752 89.5001 9.784C88.9881 9.816 88.5401 9.848 88.1561 9.88V19.48H90.5081C93.1001 19.48 95.0521 19.128 96.3641 18.424C97.6761 17.72 98.3321 16.408 98.3321 14.488C98.3321 13.56 98.1561 12.792 97.8041 12.184C97.4841 11.576 97.0041 11.096 96.3641 10.744C95.7561 10.36 95.0041 10.104 94.1081 9.976C93.2121 9.816 92.2201 9.736 91.1321 9.736Z" fill="#FF521D"/>
<path d="M46.4666 18.088C45.8266 17.928 45.0746 17.768 44.2106 17.608C43.3466 17.416 42.4186 17.32 41.4266 17.32C40.9786 17.32 40.4346 17.368 39.7946 17.464C39.1866 17.528 38.7226 17.608 38.4026 17.704V37H31.2506V13.096C32.5306 12.648 34.0346 12.232 35.7626 11.848C37.5226 11.432 39.4746 11.224 41.6186 11.224C42.0026 11.224 42.4666 11.256 43.0106 11.32C43.5546 11.352 44.0986 11.416 44.6426 11.512C45.1866 11.576 45.7306 11.672 46.2746 11.8C46.8186 11.896 47.2826 12.024 47.6666 12.184L46.4666 18.088ZM74.6479 24.328C74.6479 26.312 74.3599 28.136 73.7839 29.8C73.2079 31.432 72.3759 32.84 71.2879 34.024C70.1999 35.176 68.8879 36.072 67.3519 36.712C65.8479 37.352 64.1519 37.672 62.2639 37.672C60.4079 37.672 58.7119 37.352 57.1759 36.712C55.6719 36.072 54.3759 35.176 53.2879 34.024C52.1999 32.84 51.3519 31.432 50.7439 29.8C50.1359 28.136 49.8319 26.312 49.8319 24.328C49.8319 22.344 50.1359 20.536 50.7439 18.904C51.3839 17.272 52.2479 15.88 53.3359 14.728C54.4559 13.576 55.7679 12.68 57.2719 12.04C58.8079 11.4 60.4719 11.08 62.2639 11.08C64.0879 11.08 65.7519 11.4 67.2559 12.04C68.7919 12.68 70.1039 13.576 71.1919 14.728C72.2799 15.88 73.1279 17.272 73.7359 18.904C74.3439 20.536 74.6479 22.344 74.6479 24.328ZM67.3519 24.328C67.3519 22.12 66.9039 20.392 66.0079 19.144C65.1439 17.864 63.8959 17.224 62.2639 17.224C60.6319 17.224 59.3679 17.864 58.4719 19.144C57.5759 20.392 57.1279 22.12 57.1279 24.328C57.1279 26.536 57.5759 28.296 58.4719 29.608C59.3679 30.888 60.6319 31.528 62.2639 31.528C63.8959 31.528 65.1439 30.888 66.0079 29.608C66.9039 28.296 67.3519 26.536 67.3519 24.328ZM118.231 37H111.079V11.752H118.231V37ZM118.903 4.456C118.903 5.768 118.471 6.808 117.607 7.576C116.775 8.312 115.783 8.68 114.631 8.68C113.479 8.68 112.471 8.312 111.607 7.576C110.775 6.808 110.359 5.768 110.359 4.456C110.359 3.144 110.775 2.12 111.607 1.384C112.471 0.615998 113.479 0.231998 114.631 0.231998C115.783 0.231998 116.775 0.615998 117.607 1.384C118.471 2.12 118.903 3.144 118.903 4.456ZM146.62 11.752C145.18 16.616 143.676 21.176 142.108 25.432C140.54 29.688 138.828 33.816 136.972 37.816C136.3 39.256 135.628 40.472 134.956 41.464C134.284 42.488 133.548 43.32 132.748 43.96C131.948 44.632 131.036 45.112 130.012 45.4C129.02 45.72 127.852 45.88 126.508 45.88C125.388 45.88 124.348 45.768 123.388 45.544C122.46 45.352 121.692 45.128 121.084 44.872L122.332 39.16C123.068 39.416 123.724 39.592 124.3 39.688C124.876 39.784 125.484 39.832 126.124 39.832C127.404 39.832 128.38 39.48 129.052 38.776C129.756 38.104 130.348 37.16 130.828 35.944C129.196 32.744 127.564 29.16 125.932 25.192C124.3 21.192 122.764 16.712 121.324 11.752H128.908C129.228 13 129.596 14.36 130.012 15.832C130.46 17.272 130.924 18.744 131.404 20.248C131.884 21.72 132.364 23.16 132.844 24.568C133.356 25.976 133.836 27.256 134.284 28.408C134.7 27.256 135.132 25.976 135.58 24.568C136.028 23.16 136.46 21.72 136.876 20.248C137.324 18.744 137.74 17.272 138.124 15.832C138.54 14.36 138.908 13 139.228 11.752H146.62ZM154.79 33.208C154.79 34.648 154.326 35.752 153.398 36.52C152.502 37.256 151.478 37.624 150.326 37.624C149.174 37.624 148.134 37.256 147.206 36.52C146.31 35.752 145.862 34.648 145.862 33.208C145.862 31.768 146.31 30.68 147.206 29.944C148.134 29.176 149.174 28.792 150.326 28.792C151.478 28.792 152.502 29.176 153.398 29.944C154.326 30.68 154.79 31.768 154.79 33.208Z" fill="white"/>
</svg>
