<svg width="1440" height="326" viewBox="0 0 1440 326" fill="none" xmlns="http://www.w3.org/2000/svg">
<path d="M179.898 183.042H164.84V309.056H179.898V183.042Z" fill="white" fill-opacity="0.04"/>
<path d="M172.772 156.181H171.969V183.763H172.772V156.181Z" fill="white" fill-opacity="0.04"/>
<path d="M109.023 167.599H93.9648V257.798H109.023V167.599Z" fill="white" fill-opacity="0.04"/>
<path d="M101.893 147.587H101.09V168.259H101.893V147.587Z" fill="white" fill-opacity="0.04"/>
<path d="M101.893 252.929H101.09V280.511H101.893V252.929Z" fill="white" fill-opacity="0.04"/>
<path d="M227.383 169.642H212.324V259.841H227.383V169.642Z" fill="white" fill-opacity="0.04"/>
<path d="M220.256 149.63H219.453V170.302H220.256V149.63Z" fill="white" fill-opacity="0.04"/>
<path d="M220.256 254.911H219.453V282.493H220.256V254.911Z" fill="white" fill-opacity="0.04"/>
<path d="M558.98 79.26H543.922V169.459H558.98V79.26Z" fill="white" fill-opacity="0.04"/>
<path d="M551.854 59.251H551.051V79.9228H551.854V59.251Z" fill="white" fill-opacity="0.04"/>
<path d="M551.854 164.593H551.051V192.175H551.854V164.593Z" fill="white" fill-opacity="0.04"/>
<path d="M887.754 115.498H872.695V205.697H887.754V115.498Z" fill="white" fill-opacity="0.04"/>
<path d="M880.623 95.4866H879.82V116.158H880.623V95.4866Z" fill="white" fill-opacity="0.04"/>
<path d="M880.623 200.829H879.82V228.411H880.623V200.829Z" fill="white" fill-opacity="0.04"/>
<path d="M1047.17 163.212H1032.11V253.411H1047.17V163.212Z" fill="white" fill-opacity="0.04"/>
<path d="M1040.05 143.2H1039.24V163.872H1040.05V143.2Z" fill="white" fill-opacity="0.04"/>
<path d="M1040.05 248.542H1039.24V276.125H1040.05V248.542Z" fill="white" fill-opacity="0.04"/>
<path d="M1280.69 163.212H1265.63V253.411H1280.69V163.212Z" fill="white" fill-opacity="0.04"/>
<path d="M1273.56 143.2H1272.75V163.872H1273.56V143.2Z" fill="white" fill-opacity="0.04"/>
<path d="M1273.56 248.542H1272.75V276.125H1273.56V248.542Z" fill="white" fill-opacity="0.04"/>
<path d="M1385.89 105.164H1370.84V195.363H1385.89V105.164Z" fill="white" fill-opacity="0.04"/>
<path d="M1378.76 85.1523H1377.96V105.824H1378.76V85.1523Z" fill="white" fill-opacity="0.04"/>
<path d="M1378.76 190.494H1377.96V218.077H1378.76V190.494Z" fill="white" fill-opacity="0.04"/>
<path d="M1413.91 45.4316H1398.85V135.63H1413.91V45.4316Z" fill="white" fill-opacity="0.04"/>
<path d="M1406.78 25.4199H1405.97V46.0917H1406.78V25.4199Z" fill="white" fill-opacity="0.04"/>
<path d="M1406.78 130.762H1405.97V158.344H1406.78V130.762Z" fill="white" fill-opacity="0.04"/>
<path d="M755.445 45.4294H740.387V135.628H755.445V45.4294Z" fill="white" fill-opacity="0.04"/>
<path d="M748.217 25.4792H747.414V46.151H748.217V25.4792Z" fill="white" fill-opacity="0.04"/>
<path d="M748.217 130.76H747.414V158.342H748.217V130.76Z" fill="white" fill-opacity="0.04"/>
<path d="M652.742 70.8503H637.684V161.049H652.742V70.8503Z" fill="white" fill-opacity="0.04"/>
<path d="M645.616 50.8386H644.812V71.5104H645.616V50.8386Z" fill="white" fill-opacity="0.04"/>
<path d="M645.616 156.18H644.812V183.763H645.616V156.18Z" fill="white" fill-opacity="0.04"/>
<path d="M862.359 52.2197H847.301V142.418H862.359V52.2197Z" fill="white" fill-opacity="0.04"/>
<path d="M855.233 32.208H854.43V52.8798H855.233V32.208Z" fill="white" fill-opacity="0.04"/>
<path d="M855.233 137.55H854.43V165.132H855.233V137.55Z" fill="white" fill-opacity="0.04"/>
<path d="M131.508 196.204H116.449V286.403H131.508V196.204Z" fill="white" fill-opacity="0.04"/>
<path d="M124.381 176.192H123.578V196.864H124.381V176.192Z" fill="white" fill-opacity="0.04"/>
<path d="M124.381 281.534H123.578V309.117H124.381V281.534Z" fill="white" fill-opacity="0.04"/>
<path d="M154.906 209.903H139.848V273.181H154.906V209.903Z" fill="white" fill-opacity="0.04"/>
<path d="M147.373 189.892H146.57V210.563H147.373V189.892Z" fill="white" fill-opacity="0.04"/>
<path d="M147.373 265.188H146.57V292.771H147.373V265.188Z" fill="white" fill-opacity="0.04"/>
<path d="M172.776 298.418H171.973V326H172.776V298.418Z" fill="white" fill-opacity="0.04"/>
<path d="M84.2305 142H69.1719V205.277H84.2305V142Z" fill="white" fill-opacity="0.04"/>
<path d="M76.6976 121.988H75.8945V142.66H76.6976V121.988Z" fill="white" fill-opacity="0.04"/>
<path d="M76.6976 197.285H75.8945V224.868H76.6976V197.285Z" fill="white" fill-opacity="0.04"/>
<path d="M368.641 135.388H353.582V198.665H368.641V135.388Z" fill="white" fill-opacity="0.04"/>
<path d="M361.108 115.376H360.305V136.048H361.108V115.376Z" fill="white" fill-opacity="0.04"/>
<path d="M361.108 190.673H360.305V218.255H361.108V190.673Z" fill="white" fill-opacity="0.04"/>
<path d="M942.16 203.894H927.102V267.171H942.16V203.894Z" fill="white" fill-opacity="0.04"/>
<path d="M934.534 183.882H933.73V204.554H934.534V183.882Z" fill="white" fill-opacity="0.04"/>
<path d="M934.534 259.179H933.73V286.761H934.534V259.179Z" fill="white" fill-opacity="0.04"/>
<path d="M1307.09 119.887H1292.03V183.164H1307.09V119.887Z" fill="white" fill-opacity="0.04"/>
<path d="M1299.55 99.875H1298.75V120.547H1299.55V99.875Z" fill="white" fill-opacity="0.04"/>
<path d="M1299.55 175.172H1298.75V202.754H1299.55V175.172Z" fill="white" fill-opacity="0.04"/>
<path d="M1073.67 140.738H1058.61V204.015H1073.67V140.738Z" fill="white" fill-opacity="0.04"/>
<path d="M1066.05 120.726H1065.24V141.398H1066.05V120.726Z" fill="white" fill-opacity="0.04"/>
<path d="M1066.05 195.961H1065.24V223.543H1066.05V195.961Z" fill="white" fill-opacity="0.04"/>
<path d="M1205.99 136.529H1190.93V199.806H1205.99V136.529Z" fill="white" fill-opacity="0.04"/>
<path d="M1198.46 116.578H1197.66V137.25H1198.46V116.578Z" fill="white" fill-opacity="0.04"/>
<path d="M1198.46 191.813H1197.66V219.396H1198.46V191.813Z" fill="white" fill-opacity="0.04"/>
<path d="M512.184 133.227H497.125V196.504H512.184V133.227Z" fill="white" fill-opacity="0.04"/>
<path d="M504.651 113.215H503.848V133.887H504.651V113.215Z" fill="white" fill-opacity="0.04"/>
<path d="M504.651 188.512H503.848V216.094H504.651V188.512Z" fill="white" fill-opacity="0.04"/>
<path d="M729.937 20.0117H714.879V83.2891H729.937V20.0117Z" fill="white" fill-opacity="0.04"/>
<path d="M722.311 0H721.508V20.6718H722.311V0Z" fill="white" fill-opacity="0.04"/>
<path d="M722.311 75.2969H721.508V102.879H722.311V75.2969Z" fill="white" fill-opacity="0.04"/>
<path d="M61.6406 178.475H46.582V231.898H61.6406V178.475Z" fill="white" fill-opacity="0.04"/>
<path d="M54.1078 163.393H53.3047V179.137H54.1078V163.393Z" fill="white" fill-opacity="0.04"/>
<path d="M54.1078 228.354H53.3047V246.081H54.1078V228.354Z" fill="white" fill-opacity="0.04"/>
<path d="M343.332 173.968H328.273V227.39H343.332V173.968Z" fill="white" fill-opacity="0.04"/>
<path d="M335.799 158.885H334.996V174.63H335.799V158.885Z" fill="white" fill-opacity="0.04"/>
<path d="M335.799 223.844H334.996V241.572H335.799V223.844Z" fill="white" fill-opacity="0.04"/>
<path d="M392.121 193.737H377.062V247.159H392.121V193.737Z" fill="white" fill-opacity="0.04"/>
<path d="M384.491 178.654H383.688V194.399H384.491V178.654Z" fill="white" fill-opacity="0.04"/>
<path d="M384.491 243.615H383.688V261.343H384.491V243.615Z" fill="white" fill-opacity="0.04"/>
<path d="M487.402 181.901H472.344V235.323H487.402V181.901Z" fill="white" fill-opacity="0.04"/>
<path d="M479.87 166.756H479.066V182.5H479.87V166.756Z" fill="white" fill-opacity="0.04"/>
<path d="M479.87 231.715H479.066V249.442H479.87V231.715Z" fill="white" fill-opacity="0.04"/>
<path d="M535.484 107.688H520.426V161.11H535.484V107.688Z" fill="white" fill-opacity="0.04"/>
<path d="M527.952 92.543H527.148V108.287H527.952V92.543Z" fill="white" fill-opacity="0.04"/>
<path d="M527.952 157.504H527.148V175.231H527.952V157.504Z" fill="white" fill-opacity="0.04"/>
<path d="M38.6523 210.985H23.5938V264.408H38.6523V210.985Z" fill="white" fill-opacity="0.04"/>
<path d="M31.1196 195.903H30.3164V211.647H31.1196V195.903Z" fill="white" fill-opacity="0.04"/>
<path d="M31.1196 260.802H30.3164V278.53H31.1196V260.802Z" fill="white" fill-opacity="0.04"/>
<path d="M15.0586 191.275H0V234.842H15.0586V191.275Z" fill="white" fill-opacity="0.04"/>
<path d="M7.52583 176.192H6.72266V191.937H7.52583V176.192Z" fill="white" fill-opacity="0.04"/>
<path d="M7.52583 231.299H6.72266V249.026H7.52583V231.299Z" fill="white" fill-opacity="0.04"/>
<path d="M202.996 194.278H187.938V237.845H202.996V194.278Z" fill="white" fill-opacity="0.04"/>
<path d="M195.463 179.134H194.66V194.878H195.463V179.134Z" fill="white" fill-opacity="0.04"/>
<path d="M195.463 234.299H194.66V252.026H195.463V234.299Z" fill="white" fill-opacity="0.04"/>
<path d="M320.246 201.607H305.188V245.174H320.246V201.607Z" fill="white" fill-opacity="0.04"/>
<path d="M312.713 186.524H311.91V202.269H312.713V186.524Z" fill="white" fill-opacity="0.04"/>
<path d="M312.713 241.631H311.91V259.358H312.713V241.631Z" fill="white" fill-opacity="0.04"/>
<path d="M464.805 228.171H449.746V271.738H464.805V228.171Z" fill="white" fill-opacity="0.04"/>
<path d="M457.272 213.088H456.469V228.832H457.272V213.088Z" fill="white" fill-opacity="0.04"/>
<path d="M457.272 268.191H456.469V285.919H457.272V268.191Z" fill="white" fill-opacity="0.04"/>
<path d="M914.449 184.365H899.391V227.932H914.449V184.365Z" fill="white" fill-opacity="0.04"/>
<path d="M906.916 169.282H906.113V185.026H906.916V169.282Z" fill="white" fill-opacity="0.04"/>
<path d="M906.916 224.389H906.113V242.116H906.916V224.389Z" fill="white" fill-opacity="0.04"/>
<path d="M1127.09 202.091H1112.03V245.658H1127.09V202.091Z" fill="white" fill-opacity="0.04"/>
<path d="M1119.56 187.008H1118.75V202.752H1119.56V187.008Z" fill="white" fill-opacity="0.04"/>
<path d="M1119.56 242.111H1118.75V259.839H1119.56V242.111Z" fill="white" fill-opacity="0.04"/>
<path d="M606.254 117.302H591.195V160.869H606.254V117.302Z" fill="white" fill-opacity="0.04"/>
<path d="M598.627 102.219H597.824V117.963H598.627V102.219Z" fill="white" fill-opacity="0.04"/>
<path d="M598.627 157.322H597.824V175.05H598.627V157.322Z" fill="white" fill-opacity="0.04"/>
<path d="M808.848 134.845H793.789V178.412H808.848V134.845Z" fill="white" fill-opacity="0.04"/>
<path d="M801.315 119.763H800.512V135.507H801.315V119.763Z" fill="white" fill-opacity="0.04"/>
<path d="M801.315 174.866H800.512V192.593H801.315V174.866Z" fill="white" fill-opacity="0.04"/>
<path d="M676.93 91.8816H661.871V135.449H676.93V91.8816Z" fill="white" fill-opacity="0.04"/>
<path d="M669.303 76.7988H668.5V92.543H669.303V76.7988Z" fill="white" fill-opacity="0.04"/>
<path d="M669.303 131.905H668.5V149.633H669.303V131.905Z" fill="white" fill-opacity="0.04"/>
<path d="M704.437 58.6504H689.379V102.217H704.437V58.6504Z" fill="white" fill-opacity="0.04"/>
<path d="M696.905 43.5676H696.102V59.3119H696.905V43.5676Z" fill="white" fill-opacity="0.04"/>
<path d="M696.905 98.6741H696.102V116.401H696.905V98.6741Z" fill="white" fill-opacity="0.04"/>
<path d="M582.668 138.634H567.609V182.201H582.668V138.634Z" fill="white" fill-opacity="0.04"/>
<path d="M575.135 123.551H574.332V139.295H575.135V123.551Z" fill="white" fill-opacity="0.04"/>
<path d="M575.135 178.654H574.332V196.382H575.135V178.654Z" fill="white" fill-opacity="0.04"/>
<path d="M835.961 113.031H820.902V156.598H835.961V113.031Z" fill="white" fill-opacity="0.04"/>
<path d="M828.428 97.9482H827.625V113.692H828.428V97.9482Z" fill="white" fill-opacity="0.04"/>
<path d="M828.428 153.055H827.625V170.782H828.428V153.055Z" fill="white" fill-opacity="0.04"/>
<path d="M1020.86 144.883H1005.8V188.45H1020.86V144.883Z" fill="white" fill-opacity="0.04"/>
<path d="M1013.33 129.8H1012.53V145.544H1013.33V129.8Z" fill="white" fill-opacity="0.04"/>
<path d="M1013.33 184.903H1012.53V202.631H1013.33V184.903Z" fill="white" fill-opacity="0.04"/>
<path d="M969.066 193.258H954.008V236.825H969.066V193.258Z" fill="white" fill-opacity="0.04"/>
<path d="M961.534 178.175H960.73V193.919H961.534V178.175Z" fill="white" fill-opacity="0.04"/>
<path d="M961.534 233.281H960.73V251.009H961.534V233.281Z" fill="white" fill-opacity="0.04"/>
<path d="M1099.79 175.168H1084.73V218.735H1099.79V175.168Z" fill="white" fill-opacity="0.04"/>
<path d="M1092.25 160.085H1091.45V175.829H1092.25V160.085Z" fill="white" fill-opacity="0.04"/>
<path d="M1092.25 215.191H1091.45V232.919H1092.25V215.191Z" fill="white" fill-opacity="0.04"/>
<path d="M1176.82 187.68H1161.76V231.247H1176.82V187.68Z" fill="white" fill-opacity="0.04"/>
<path d="M1169.29 172.597H1168.48V188.341H1169.29V172.597Z" fill="white" fill-opacity="0.04"/>
<path d="M1169.29 227.703H1168.48V245.43H1169.29V227.703Z" fill="white" fill-opacity="0.04"/>
<path d="M1255.19 145.062H1240.13V188.629H1255.19V145.062Z" fill="white" fill-opacity="0.04"/>
<path d="M1247.65 129.979H1246.85V145.723H1247.65V129.979Z" fill="white" fill-opacity="0.04"/>
<path d="M1247.65 185.085H1246.85V202.812H1247.65V185.085Z" fill="white" fill-opacity="0.04"/>
<path d="M1333.39 163.75H1318.33V207.317H1333.39V163.75Z" fill="white" fill-opacity="0.04"/>
<path d="M1325.86 148.668H1325.05V164.412H1325.86V148.668Z" fill="white" fill-opacity="0.04"/>
<path d="M1325.86 203.774H1325.05V221.501H1325.86V203.774Z" fill="white" fill-opacity="0.04"/>
<path d="M249.57 224.746H234.512V268.313H249.57V224.746Z" fill="white" fill-opacity="0.04"/>
<path d="M242.037 209.663H241.234V225.407H242.037V209.663Z" fill="white" fill-opacity="0.04"/>
<path d="M242.037 264.77H241.234V282.497H242.037V264.77Z" fill="white" fill-opacity="0.04"/>
<path d="M273.062 248.363H258.004V277.208H273.062V248.363Z" fill="white" fill-opacity="0.04"/>
<path d="M265.436 233.28H264.633V249.024H265.436V233.28Z" fill="white" fill-opacity="0.04"/>
<path d="M265.436 273.603H264.633V291.33H265.436V273.603Z" fill="white" fill-opacity="0.04"/>
<path d="M441.223 264.587H426.164V293.431H441.223V264.587Z" fill="white" fill-opacity="0.04"/>
<path d="M433.69 249.504H432.887V265.248H433.69V249.504Z" fill="white" fill-opacity="0.04"/>
<path d="M433.69 289.826H432.887V307.553H433.69V289.826Z" fill="white" fill-opacity="0.04"/>
<path d="M297.652 227.21H282.594V256.054H297.652V227.21Z" fill="white" fill-opacity="0.04"/>
<path d="M290.12 212.127H289.316V227.871H290.12V212.127Z" fill="white" fill-opacity="0.04"/>
<path d="M290.12 252.449H289.316V270.176H290.12V252.449Z" fill="white" fill-opacity="0.04"/>
<path d="M416.012 240.97H400.953V269.814H416.012V240.97Z" fill="white" fill-opacity="0.04"/>
<path d="M408.479 225.887H407.676V241.631H408.479V225.887Z" fill="white" fill-opacity="0.04"/>
<path d="M408.479 266.268H407.676V283.995H408.479V266.268Z" fill="white" fill-opacity="0.04"/>
<path d="M628.652 150.892H613.594V179.737H628.652V150.892Z" fill="white" fill-opacity="0.04"/>
<path d="M621.12 135.81H620.316V151.554H621.12V135.81Z" fill="white" fill-opacity="0.04"/>
<path d="M621.12 176.193H620.316V193.921H621.12V176.193Z" fill="white" fill-opacity="0.04"/>
<path d="M781.844 117.48H766.785V146.325H781.844V117.48Z" fill="white" fill-opacity="0.04"/>
<path d="M774.311 102.397H773.508V118.142H774.311V102.397Z" fill="white" fill-opacity="0.04"/>
<path d="M774.311 142.719H773.508V160.447H774.311V142.719Z" fill="white" fill-opacity="0.04"/>
<path d="M995.566 179.316H980.508V208.161H995.566V179.316Z" fill="white" fill-opacity="0.04"/>
<path d="M988.034 164.233H987.23V179.978H988.034V164.233Z" fill="white" fill-opacity="0.04"/>
<path d="M988.034 204.614H987.23V222.342H988.034V204.614Z" fill="white" fill-opacity="0.04"/>
<path d="M1151.78 233.281H1136.72V262.126H1151.78V233.281Z" fill="white" fill-opacity="0.04"/>
<path d="M1144.15 218.137H1143.35V233.881H1144.15V218.137Z" fill="white" fill-opacity="0.04"/>
<path d="M1144.15 258.521H1143.35V276.248H1144.15V258.521Z" fill="white" fill-opacity="0.04"/>
<path d="M1230.49 176.733H1215.43V205.578H1230.49V176.733Z" fill="white" fill-opacity="0.04"/>
<path d="M1222.96 161.59H1222.15V177.334H1222.96V161.59Z" fill="white" fill-opacity="0.04"/>
<path d="M1222.96 201.97H1222.15V219.697H1222.96V201.97Z" fill="white" fill-opacity="0.04"/>
<path d="M1359.59 196.322H1344.53V225.166H1359.59V196.322Z" fill="white" fill-opacity="0.04"/>
<path d="M1351.96 181.239H1351.16V196.983H1351.96V181.239Z" fill="white" fill-opacity="0.04"/>
<path d="M1351.96 221.561H1351.16V239.288H1351.96V221.561Z" fill="white" fill-opacity="0.04"/>
<path d="M1440 28.6033H1424.94V57.4476H1440V28.6033Z" fill="white" fill-opacity="0.04"/>
<path d="M1432.47 13.5205H1431.66V29.2647H1432.47V13.5205Z" fill="white" fill-opacity="0.04"/>
<path d="M1432.47 53.8425H1431.66V71.5698H1432.47V53.8425Z" fill="white" fill-opacity="0.04"/>
</svg>
