<svg width="46" height="46" viewBox="0 0 46 46" fill="none" xmlns="http://www.w3.org/2000/svg">
    <g clip-path="url(#clip0_112_1418)">
        <path d="M22.8545 0H23.1456C25.4564 0.0512109 27.7681 0.566016 29.8345 1.61359C33.7319 3.51469 36.7443 7.14617 37.8791 11.3338C38.269 12.6707 38.4226 14.0641 38.4496 15.4531C38.4415 17.8834 38.004 20.3298 37.013 22.5571C36.3886 23.9317 35.6096 25.2344 34.7202 26.4545C33.5369 28.1454 32.1533 29.7068 31.1794 31.5361C30.7706 32.3339 30.4508 33.1829 30.2909 34.0661C30.0842 35.0651 30.1103 36.092 30.1094 37.1064C30.1058 38.3031 30.1157 39.4998 30.104 40.6974C30.086 42.2535 29.3484 43.7818 28.1418 44.7637C27.2236 45.531 26.0448 45.9623 24.8517 46H21.1475C19.5671 45.9605 18.0281 45.1905 17.0551 43.9453C16.3094 43.0028 15.8961 41.8097 15.8934 40.6085C15.888 39.3803 15.8934 38.153 15.8907 36.9249C15.8943 35.9303 15.8988 34.9259 15.6895 33.9493C15.3346 32.1605 14.3535 30.5765 13.2664 29.1417C12.3491 27.8722 11.3608 26.653 10.5127 25.335C9.45251 23.7017 8.58641 21.9264 8.11383 20.0307C7.28008 16.6993 7.3286 13.0857 8.60618 9.87113C10.0257 6.17766 12.9322 3.08074 16.5322 1.4375C18.5025 0.502227 20.6794 0.0512109 22.8545 0ZM20.3002 3.91539C18.2841 4.37898 16.4028 5.39691 14.8988 6.81465C13.3787 8.22789 12.2529 10.0553 11.6483 12.0391C10.7669 15.0407 11.0733 18.3434 12.3266 21.195C13.7551 24.4312 16.4756 26.8579 18.0685 29.9997C18.6462 31.1048 19.0245 32.2997 19.2841 33.5162C21.7611 33.509 24.2372 33.5072 26.7142 33.518C26.8597 33.0032 26.9343 32.4695 27.1212 31.9664C27.5336 30.6385 28.1993 29.4041 28.9612 28.2469C30.2756 26.2784 31.8721 24.5031 33.0455 22.4394C34.8181 19.3281 35.3607 15.49 34.3518 12.0382C33.7454 10.0535 32.6196 8.22519 31.0986 6.81195C29.7311 5.5227 28.0529 4.56855 26.2461 4.05465C24.3172 3.5084 22.2507 3.45449 20.3002 3.91539ZM19.4854 37.1064C19.4899 38.3022 19.4746 39.4989 19.4934 40.6947C19.5168 41.5887 20.302 42.3775 21.1969 42.3982C22.3999 42.4116 23.6038 42.4125 24.8068 42.3973C25.6998 42.3748 26.4797 41.5896 26.5057 40.6992C26.5273 39.5016 26.5093 38.304 26.5147 37.1064C24.1716 37.1055 21.8285 37.1055 19.4854 37.1064Z" fill="#B0BEC5"/>
        <path d="M3.26854 3.12024C4.51287 3.74196 5.75361 4.36997 6.99615 4.99528C6.45709 6.06442 5.91893 7.13446 5.37896 8.2027C4.13822 7.57829 2.89658 6.95387 1.65674 6.32766C2.194 5.25852 2.73396 4.19028 3.26854 3.12024Z" fill="#B0BEC5"/>
        <path d="M39.0039 4.99537C40.2491 4.37545 41.4827 3.73037 42.7369 3.12842C43.2679 4.19486 43.8034 5.26041 44.3442 6.32147C43.108 6.95846 41.8618 7.57568 40.6211 8.20279C40.0811 7.13365 39.5421 6.06451 39.0039 4.99537Z" fill="#B0BEC5"/>
        <path d="M18.364 10.1874C19.6847 8.80378 21.6361 8.06347 23.5408 8.19644C25.2577 8.28988 26.9117 9.12273 28.024 10.43C29.0662 11.5611 29.6537 13.1037 29.6331 14.6418C29.6501 16.0326 29.1021 17.3812 28.2863 18.4898C27.6817 19.3416 26.9144 20.0567 26.1678 20.7809C25.795 21.1555 25.3871 21.505 25.096 21.9497C24.9118 22.2363 24.8965 22.5813 24.8812 22.9102C23.6845 22.9093 22.4869 22.911 21.2902 22.9093C21.2965 21.938 21.4789 20.9435 22 20.1088C22.7519 18.8887 23.946 18.046 24.8741 16.9751C25.4401 16.3516 25.9935 15.6139 26.0456 14.7416C26.0977 13.605 25.3718 12.5018 24.3413 12.0409C23.344 11.5835 22.0916 11.7309 21.239 12.4272C20.5364 12.9627 20.1492 13.8269 20.1159 14.7002C18.9219 14.6885 17.727 14.6984 16.533 14.6957C16.5383 13.0318 17.1987 11.3778 18.364 10.1874Z" fill="#FF8500"/>
        <path d="M0 13.6563C1.34766 13.6563 2.69531 13.6554 4.04297 13.6563C4.04297 14.8539 4.04297 16.0524 4.04297 17.25C2.69531 17.25 1.34766 17.25 0 17.25V13.6563Z" fill="#B0BEC5"/>
        <path d="M41.957 13.6562C43.3047 13.6562 44.6523 13.6562 46 13.6562V17.25C44.6523 17.25 43.3047 17.25 41.957 17.25C41.957 16.0524 41.957 14.8539 41.957 13.6562Z" fill="#B0BEC5"/>
        <path d="M1.65771 24.3477C2.92721 23.7071 4.1985 23.0674 5.46889 22.4277C6.00885 23.4969 6.54791 24.566 7.08607 25.6361C5.81748 26.2775 4.54529 26.9127 3.2785 27.5569C2.73135 26.4914 2.19768 25.4177 1.65771 24.3477Z" fill="#B0BEC5"/>
        <path d="M40.5312 22.4277C41.8016 23.0665 43.0711 23.7071 44.3415 24.3459C43.8034 25.4177 43.2742 26.495 42.7189 27.5578C41.4557 26.9073 40.1809 26.2793 38.9141 25.6361C39.4522 24.566 39.9913 23.4969 40.5312 22.4277Z" fill="#B0BEC5"/>
        <path d="M21.293 25.6055C22.4906 25.6055 23.6891 25.6055 24.8867 25.6055C24.8867 26.8031 24.8867 28.0007 24.8867 29.1992C23.6891 29.1992 22.4906 29.1992 21.293 29.1992C21.293 28.0016 21.293 26.8031 21.293 25.6055Z" fill="#FF8500"/>
    </g>
    <defs>
        <clipPath id="clip0_112_1418">
            <rect width="46" height="46" fill="white"/>
        </clipPath>
    </defs>
</svg>
