<?xml version="1.0" encoding="UTF-8"?>
<svg id="Layer_2" data-name="Layer 2" xmlns="http://www.w3.org/2000/svg" viewBox="0 0 601.38 138.55">
    <defs>
        <style>
            .cls-1 {
            fill: #fff;
            }

            .cls-2 {
            fill: #ff7900;
            }
        </style>
    </defs>
    <g id="Layer_1-2" data-name="Layer 1">
        <g>
            <g>
                <path class="cls-1" d="M358.87,22.95c-12.81,0-23.7,4.52-32.71,13.57-9,9.05-13.51,19.93-13.51,32.63s4.51,23.75,13.51,32.82c9.01,9.09,19.9,13.63,32.71,13.63s23.71-4.56,32.76-13.68c8.96-9.05,13.44-19.97,13.44-32.77s-4.51-23.58-13.51-32.63c-9.01-9.05-19.9-13.57-32.7-13.57Zm19.36,65.77c-5.33,5.38-11.79,8.06-19.36,8.06s-14.06-2.68-19.44-8.06c-5.38-5.38-8.07-11.9-8.07-19.56s2.72-14.06,8.14-19.43c5.42-5.38,11.88-8.07,19.38-8.07s13.93,2.69,19.31,8.07c5.37,5.37,8.06,11.85,8.06,19.43s-2.67,14.18-8.01,19.56Z"/>
                <path class="cls-1" d="M195.07,24.54h-34.35V102.4c0,6.28,5.09,11.38,11.38,11.38h6.96v-30.81h16.01c9.45,0,17.07-2.82,22.86-8.44,5.78-5.62,8.67-12.59,8.67-20.9s-2.89-15.13-8.67-20.72c-5.78-5.58-13.41-8.37-22.86-8.37Zm9.16,37.23c-2.37,2.15-5.58,3.23-9.65,3.23h-15.52v-22.61h15.52c3.99,0,7.18,1.08,9.59,3.24,2.4,2.15,3.62,4.82,3.62,8s-1.19,5.97-3.55,8.14Z"/>
                <path class="cls-1" d="M601.38,24.54l-29.83,52.56v36.68h-6.96c-6.28,0-11.37-5.09-11.37-11.38v-25.3l-29.7-52.56h20.65l18.34,32.27,18.21-32.27h20.65Z"/>
                <path class="cls-1" d="M299.28,69.4c3.13-4.64,4.71-9.9,4.71-15.77,0-8.22-2.89-15.13-8.67-20.72-5.8-5.58-13.41-8.37-22.87-8.37h-34.35V102.4c0,6.28,5.09,11.38,11.38,11.38h6.96v-30.81h11.85l16.51,30.81h20.9l-19.2-34.47c5.38-1.95,9.64-5.26,12.78-9.9Zm-17.66-7.64c-2.37,2.15-5.58,3.23-9.66,3.23h-15.52v-22.61h15.52c3.99,0,7.2,1.08,9.6,3.24,2.4,2.15,3.61,4.82,3.61,8s-1.18,5.97-3.54,8.14Z"/>
                <path class="cls-1" d="M495.9,24.54h18.33V113.77h-6.96c-6.28,0-11.37-5.09-11.37-11.38V24.54Z"/>
                <path class="cls-1" d="M452.86,24.54h-34.35V102.4c0,6.28,5.09,11.38,11.38,11.38h6.96v-30.81h16.01c9.45,0,17.07-2.82,22.86-8.44,5.78-5.62,8.69-12.59,8.69-20.9s-2.9-15.13-8.69-20.72c-5.78-5.58-13.41-8.37-22.86-8.37Zm9.18,37.23c-2.37,2.15-5.58,3.23-9.66,3.23h-15.52v-22.61h15.52c3.99,0,7.2,1.08,9.6,3.24,2.4,2.15,3.61,4.82,3.61,8s-1.19,5.97-3.54,8.14Z"/>
            </g>
            <g>
                <path class="cls-2" d="M86.21,11.72l-7.94,34.52c-1.26,5.43-6.09,9.28-11.66,9.28h-23.56c-5.41,0-10.14,3.64-11.54,8.86l-9.97,37.11c-1.12,4.18-4.91,7.09-9.24,7.09h-2.72c-5.28,0-9.57-4.28-9.57-9.57V10.73C0,4.81,4.81,0,10.73,0H76.88c6.15,0,10.7,5.73,9.33,11.72Z"/>
                <path class="cls-2" d="M41.52,126.83l7.94-34.52c1.26-5.43,6.09-9.28,11.66-9.28h23.56c5.41,0,10.14-3.64,11.54-8.86l9.97-37.11c1.12-4.18,4.91-7.09,9.24-7.09h2.72c5.28,0,9.57,4.28,9.57,9.57V127.82c0,5.93-4.81,10.73-10.73,10.73H50.85c-6.15,0-10.7-5.73-9.33-11.72Z"/>
            </g>
        </g>
    </g>
</svg>