<svg width="37" height="37" viewBox="0 0 37 37" fill="none" xmlns="http://www.w3.org/2000/svg">
                            <path d="M34.4524 16.7852H2V20.7614H34.4524V16.7852Z" fill="#D67205"></path>
                            <path d="M18.5 0C8.28571 0 0 8.28571 0 18.5C0 28.7143 8.28571 37 18.5 37C28.7143 37 37 28.7143 37 18.5C37 8.28571 28.7143 0 18.5 0ZM18.5 34.0238C9.95238 34.0238 3 27.0714 3 18.5238C3 9.9762 9.95238 3.02381 18.5 3.02381C27.0476 3.02381 34 9.9762 34 18.5238C34 27.0714 27.0476 34.0238 18.5 34.0238Z" fill="#FFB600"></path>
                            <path d="M18.619 1.02344C9.02375 1.02344 1.23804 8.9282 1.23804 18.6187C1.23804 28.3092 9.02375 36.2139 18.619 36.2139C28.2142 36.2139 35.9999 28.3092 35.9999 18.6187C35.9999 8.9282 28.1904 1.02344 18.619 1.02344ZM18.619 35.4996C9.42851 35.4996 1.95232 27.9282 1.95232 18.6187C1.95232 9.30915 9.42851 1.73772 18.619 1.73772C27.8095 1.73772 35.2857 9.30915 35.2857 18.6187C35.2857 27.9282 27.8095 35.4996 18.619 35.4996Z" fill="#FFE100"></path>
                            <path opacity="0.68" d="M7.69067 29.5227C10.4764 32.2608 14.2859 33.9513 18.5002 33.9513C23.2145 33.9513 27.4288 31.8322 30.2621 28.4989V8.5227C27.4288 5.18937 23.2145 3.07031 18.5002 3.07031C14.2859 3.07031 10.4764 4.76079 7.69067 7.49889V29.5227Z" fill="#BF0930"></path>
                            <path d="M18.4998 32.5234C10.7855 32.5234 4.49976 26.2377 4.49976 18.5234C4.49976 10.8092 10.7855 4.52344 18.4998 4.52344C26.214 4.52344 32.4998 10.8092 32.4998 18.5234C32.5236 26.2377 26.2379 32.5234 18.4998 32.5234Z" fill="#FFB600"></path>
                            <path d="M18.4997 30.2621C24.9956 30.2621 30.2616 24.9961 30.2616 18.5002C30.2616 12.0043 24.9956 6.73828 18.4997 6.73828C12.0038 6.73828 6.73779 12.0043 6.73779 18.5002C6.73779 24.9961 12.0038 30.2621 18.4997 30.2621Z" fill="#FFCF13"></path>
                            <path opacity="0.71" d="M7.69017 18.4996C7.69017 12.1663 12.714 6.99963 18.9759 6.73773C12.2854 6.47582 6.73779 11.833 6.73779 18.4996C6.73779 25.1663 12.2854 30.5234 18.9759 30.2615C12.714 30.0234 7.69017 24.833 7.69017 18.4996Z" fill="#D67205"></path>
                            <path d="M16.9047 25.5717V16.3098L14.8095 17.7384L12.6904 14.667L17.7142 11.3574H21.0952V25.5717H16.9047Z" fill="#FFB600"></path>
                            <path d="M17.8574 11.832H20.6193V25.0939H17.3812V15.4035L14.9288 17.0939L13.3574 14.8082L17.8574 11.832Z" fill="white"></path>
                            <path d="M20.6191 13.713L18.7381 11.832H18.4048L20.6191 14.0463V13.713Z" fill="white"></path>
                            <path d="M20.6186 16.1655L16.9043 12.4512L16.3091 12.8559L20.6186 17.1655V16.1655Z" fill="white"></path>
                            <path d="M20.6187 20.0698L17.3806 16.8555V17.5221L20.6187 20.7602V20.0698Z" fill="white"></path>
                            <path d="M20.6187 21.8084L17.3806 18.5703V19.2608L20.6187 22.4751V21.8084Z" fill="white"></path>
                            <path d="M8.38124 10.215C10.1431 8.02455 12.5955 6.4055 15.3098 5.69121C15.6193 5.61979 15.7384 6.07217 15.4289 6.14359C12.8098 6.83407 10.4527 8.38169 8.76221 10.5007C8.54792 10.7388 8.19077 10.4531 8.38124 10.215Z" fill="#FFF8C5"></path>
                            <path d="M5.52399 18.8089C5.47637 16.8565 5.83352 14.9994 6.52399 13.3327C6.64304 13.047 7.07161 13.2375 6.95256 13.5232C5.38113 17.2851 6.40494 19.0232 5.76209 19.047C5.61923 19.047 5.52399 18.928 5.52399 18.8089Z" fill="#FFF8C5"></path>
                            <path d="M12.0953 29.8338C9.11907 28.1195 6.97622 25.3576 6.02383 22.0481C5.9286 21.7386 6.38097 21.6195 6.47621 21.9291C7.38097 25.0957 9.45241 27.7624 12.3334 29.4291C12.5953 29.5719 12.3572 30.0005 12.0953 29.8338Z" fill="#FFF8C5"></path>
                            <path d="M22.9525 30.6426C22.762 30.095 24.1429 30.3807 26.7382 28.2379C26.9763 28.0474 27.2858 28.4045 27.0477 28.595C25.9048 29.5236 24.6429 30.2617 23.262 30.7617C23.1429 30.8331 23.0001 30.7855 22.9525 30.6426Z" fill="#FFE100"></path>
                            <path d="M30.2857 24.2141C29.6905 23.9284 31.4047 22.6903 31.4047 18.4284C31.4047 12.3094 27.0476 7.07127 21.0476 5.92841C20.7381 5.8808 20.8333 5.40461 21.1428 5.47604C29.7143 7.09508 34.2619 16.4046 30.5952 24.0951C30.5476 24.2141 30.4047 24.2617 30.2857 24.2141Z" fill="#FFE100"></path>
                            </svg>