<svg width="37" height="37" viewBox="0 0 37 37" fill="none" xmlns="http://www.w3.org/2000/svg">
                            <path d="M23.4577 29.1632C29.3469 26.4225 31.8993 19.4267 29.1587 13.5375C26.418 7.64827 19.4222 5.09585 13.533 7.83648C7.64377 10.5771 5.09135 17.573 7.83198 23.4622C10.5726 29.3514 17.5685 31.9038 23.4577 29.1632Z" fill="#9EA8BA"></path>
                            <path d="M34.4524 16.7617H2V20.7379H34.4524V16.7617Z" fill="#6B7282"></path>
                            <path d="M18.5 0C8.28571 0 0 8.28572 0 18.5C0 28.7143 8.28571 37 18.5 37C28.7143 37 37 28.7143 37 18.5C37 8.28572 28.7143 0 18.5 0ZM18.5 34C9.95238 34 3 27.0476 3 18.5C3 9.95238 9.95238 3 18.5 3C27.0476 3 34 9.95238 34 18.5C34 27.0476 27.0476 34 18.5 34Z" fill="#798093"></path>
                            <path d="M18.3093 0.951172C8.64267 0.951172 0.761719 8.80832 0.761719 18.4988C0.761719 28.1655 8.61886 36.0464 18.3093 36.0464C27.9998 36.0464 35.857 28.1893 35.857 18.4988C35.857 8.83213 27.9998 0.951172 18.3093 0.951172ZM18.3093 35.3083C9.02363 35.3083 1.476 27.7607 1.476 18.475C1.476 9.18927 9.02363 1.64165 18.3093 1.64165C27.5951 1.64165 35.1427 9.18927 35.1427 18.475C35.1427 27.7607 27.5951 35.3083 18.3093 35.3083Z" fill="#9DAED1"></path>
                            <path opacity="0.68" d="M7.69043 29.4993C10.4761 32.2373 14.2857 33.9278 18.5 33.9278C23.2142 33.9278 27.4285 31.8088 30.2619 28.4754V8.49925C27.4285 5.16592 23.2142 3.04688 18.5 3.04688C14.2857 3.04688 10.4761 4.73735 7.69043 7.47545V29.4993Z" fill="#BF0930"></path>
                            <path d="M18.4995 32.5C10.7852 32.5 4.49951 26.2143 4.49951 18.5C4.49951 10.7857 10.7852 4.5 18.4995 4.5C26.2138 4.5 32.4995 10.7857 32.4995 18.5C32.4995 26.2143 26.2138 32.5 18.4995 32.5Z" fill="#B0B9CC"></path>
                            <path d="M23.4577 29.1632C29.3469 26.4225 31.8993 19.4267 29.1587 13.5375C26.418 7.64827 19.4222 5.09585 13.533 7.83648C7.64377 10.5771 5.09135 17.573 7.83198 23.4622C10.5726 29.3514 17.5685 31.9038 23.4577 29.1632Z" fill="#9EA8BA"></path>
                            <g opacity="0.43">
                            <path d="M25.3096 8.9043L10.7144 27.3091C11.0477 27.5948 11.381 27.8805 11.7382 28.1186L26.3334 9.73763C26.0001 9.42811 25.6667 9.1662 25.3096 8.9043Z" fill="#B0B9CC"></path>
                            <path d="M27.7618 11.2617L13.5713 29.1665C13.7856 29.2617 13.9761 29.357 14.1903 29.4284L28.1665 11.8093C28.0475 11.6189 27.9046 11.4522 27.7618 11.2617Z" fill="#B0B9CC"></path>
                            <path d="M22.5241 7.45312L8.66699 24.9293C8.78604 25.1198 8.92889 25.3103 9.04794 25.5008L23.167 7.71504C22.9527 7.59599 22.7384 7.52455 22.5241 7.45312Z" fill="#B0B9CC"></path>
                            <path d="M19.4286 6.76172L7.30957 22.0474C7.42862 22.4046 7.57148 22.7855 7.71434 23.1189L20.5715 6.90457C20.1905 6.85695 19.8096 6.80934 19.4286 6.76172Z" fill="#B0B9CC"></path>
                            </g>
                            <path d="M7.69066 18.4996C7.69066 12.1663 12.7145 6.99963 18.9764 6.73773C12.2859 6.47582 6.73828 11.833 6.73828 18.4996C6.73828 25.1663 12.2859 30.5234 18.9764 30.2615C12.7145 29.9996 7.69066 24.8092 7.69066 18.4996Z" fill="#8A99AD"></path>
                            <path d="M17.8097 22.4516H22.6906V24.8564H13.9287V22.3564C15.4525 21.0468 19.2859 17.8564 19.2859 15.8564C19.2859 14.8564 18.6192 14.1659 17.524 14.1659C16.4287 14.1659 15.3097 14.5945 14.3335 15.0945L14.2382 12.4278C20.8573 9.80874 24.5001 13.9992 21.3811 18.5945C20.643 19.7373 19.4525 21.023 17.8097 22.4516Z" fill="#BAC6D8"></path>
                            <path d="M17.8097 22.4516H22.6906V24.8564H13.9287V22.3564C15.4525 21.0468 19.2859 17.8564 19.2859 15.8564C19.2859 14.8564 18.6192 14.1659 17.524 14.1659C16.4287 14.1659 15.3097 14.5945 14.3335 15.0945L14.2382 12.4278C20.8573 9.80874 24.5001 13.9992 21.3811 18.5945C20.643 19.7373 19.4525 21.023 17.8097 22.4516Z" fill="#BAC6D8"></path>
                            <path d="M13.4521 25.3323V22.1418L13.8093 21.8323C15.1664 20.6656 18.7855 17.5704 18.7855 15.8799C18.7855 15.118 18.3093 14.6657 17.4998 14.6657C16.6664 14.6657 15.6902 14.9514 14.5236 15.5466L13.8569 15.8799L13.7379 12.1418L14.0474 12.0228C15.4521 11.4752 16.8093 11.1895 18.0236 11.1895C20.095 11.1895 21.7379 12.0228 22.5236 13.4752C23.3331 15.0228 23.0712 16.999 21.7617 18.9037C21.1426 19.8323 20.2141 20.8561 19.0236 21.9752H23.1426V25.3323H13.4521Z" fill="#798093"></path>
                            <path d="M17.8097 22.4516H22.6906V24.8564H13.9287V22.3564C15.4525 21.0468 19.2859 17.8564 19.2859 15.8564C19.2859 14.8564 18.6192 14.1659 17.524 14.1659C16.4287 14.1659 15.3097 14.5945 14.3335 15.0945L14.2382 12.4278C20.8573 9.80874 24.5001 13.9992 21.3811 18.5945C20.643 19.7373 19.4525 21.023 17.8097 22.4516Z" fill="white"></path>
                            <path d="M16.8096 12.2615C17.9525 12.0234 19.7144 11.952 20.5715 12.6425C21.4049 13.1901 22.381 15.4996 20.5715 18.0234C19.5715 19.4044 17.9049 21.0711 16.6191 22.1901C17.7144 21.0711 19.5001 19.1901 20.4049 17.9044C21.3096 16.6187 21.7382 14.8806 21.0239 13.4996C20.5953 12.5711 19.7382 12.3091 18.7144 12.2139C18.0953 12.1425 17.4525 12.1663 16.8096 12.2615Z" fill="white"></path>
                            <path d="M5.30984 20.0002C4.76222 16.1431 5.95269 12.2383 8.57174 9.35736C8.66698 9.23831 8.85746 9.40498 8.73841 9.52403C6.16698 12.3574 5.00031 16.1669 5.52412 19.9764C5.57174 20.1193 5.33365 20.1669 5.30984 20.0002Z" fill="#CEDDF4"></path>
                            <path d="M6.88099 24.5957C6.26194 23.5242 5.80955 22.3814 5.52384 21.1909C5.47622 21.0481 5.71432 20.9766 5.76193 21.1433C6.40479 23.9052 7.33336 24.5004 7.04765 24.6671C7.02384 24.6433 6.90479 24.6433 6.88099 24.5957Z" fill="#CEDDF4"></path>
                            <path d="M18.2383 31.1911C13.9764 31.1911 9.97638 29.0958 7.524 25.5958C7.42876 25.4768 7.61925 25.3339 7.71448 25.453C10.1192 28.8816 14.0478 30.953 18.2383 30.953C18.3811 30.953 18.3811 31.1911 18.2383 31.1911Z" fill="#CEDDF4"></path>
                            <path d="M26.6192 27.8343C32.6192 22.62 32.5002 13.2152 26.2621 8.1676C26.143 8.07236 26.2859 7.88189 26.4049 7.97713C32.7859 13.12 32.8811 22.6914 26.7859 28.0009C26.6668 28.12 26.5002 27.9295 26.6192 27.8343Z" fill="#CEDDF4"></path>
                            <path d="M9.73822 8.21434C10.4287 7.6191 11.1906 7.09529 12.0001 6.66672C12.143 6.59529 12.262 6.80958 12.1192 6.88101C11.3335 7.30958 10.5716 7.83338 9.90488 8.40481C9.78584 8.50005 9.61917 8.33339 9.73822 8.21434Z" fill="#CEDDF4"></path>
                            </svg>