<svg width="37" height="37" viewBox="0 0 37 37" fill="none" xmlns="http://www.w3.org/2000/svg">
                            <path d="M34.4524 16.7852H2V20.7613H34.4524V16.7852Z" fill="#D67205"></path>
                            <path d="M18.5 0C8.2857 0 0 8.28572 0 18.5C0 28.7143 8.2857 37 18.5 37C28.7143 37 37 28.7143 37 18.5C37 8.28572 28.7143 0 18.5 0ZM18.5 34.0238C9.95237 34.0238 2.99999 27.0714 2.99999 18.5238C2.99999 9.97619 9.95237 3.02381 18.5 3.02381C27.0476 3.02381 34 9.97619 34 18.5238C34 27.0714 27.0476 34.0238 18.5 34.0238Z" fill="#FF8500"></path>
                            <path d="M18.5001 1.11914C8.90486 1.11914 1.11914 8.92866 1.11914 18.5001C1.11914 28.0953 8.92867 35.881 18.5001 35.881C28.0953 35.881 35.8811 28.0715 35.8811 18.5001C35.8811 8.92866 28.0715 1.11914 18.5001 1.11914ZM18.5001 35.1906C9.30962 35.1906 1.83343 27.7144 1.83343 18.5239C1.83343 9.33342 9.30962 1.85724 18.5001 1.85724C27.6906 1.85724 35.1668 9.33342 35.1668 18.5239C35.1668 27.7144 27.6906 35.1906 18.5001 35.1906Z" fill="#FFAF57"></path>
                            <path opacity="0.68" d="M7.69043 29.5227C10.4761 32.2608 14.2857 33.9513 18.4999 33.9513C23.2142 33.9513 27.4285 31.8322 30.2619 28.4989V8.52268C27.4285 5.18935 23.2142 3.07031 18.4999 3.07031C14.2857 3.07031 10.4761 4.76078 7.69043 7.49888V29.5227Z" fill="#BF0930"></path>
                            <path d="M18.4995 32.5234C10.7852 32.5234 4.49951 26.2377 4.49951 18.5234C4.49951 10.8091 10.7852 4.52344 18.4995 4.52344C26.2138 4.52344 32.4995 10.8091 32.4995 18.5234C32.4995 26.2377 26.2138 32.5234 18.4995 32.5234Z" fill="#ED8A29"></path>
                            <path d="M18.5002 30.2621C12.024 30.2621 6.73828 24.9764 6.73828 18.5002C6.73828 12.024 12.024 6.73828 18.5002 6.73828C24.9764 6.73828 30.2621 12.024 30.2621 18.5002C30.2621 25.0002 24.9764 30.2621 18.5002 30.2621Z" fill="#FF952C"></path>
                            <g opacity="0.31">
                            <path d="M18.4282 30.2625L6.85673 16.7148C6.76149 17.2625 6.73768 17.8339 6.71387 18.3815L16.7377 30.1196C17.3091 30.2148 17.8567 30.2625 18.4282 30.2625Z" fill="#DD722A"></path>
                            <path d="M29.4521 22.7853L15.9997 7.02344C15.5711 7.11868 15.1426 7.23772 14.7378 7.38058L28.9283 23.9758C29.1188 23.5949 29.2854 23.1901 29.4521 22.7853Z" fill="#DD722A"></path>
                            <path d="M30.2138 19.595L19.2615 6.78552C18.9996 6.76171 18.7615 6.76172 18.4996 6.76172C18.4281 6.76172 18.3805 6.76172 18.3091 6.76172L30.0948 20.5474C30.1424 20.2141 30.1662 19.9046 30.2138 19.595Z" fill="#DD722A"></path>
                            <path d="M25.4998 27.9525L10.2617 10.1191C9.97596 10.4049 9.71405 10.6906 9.45215 11.0001L24.4998 28.6191C24.8569 28.4049 25.1903 28.1906 25.4998 27.9525Z" fill="#DD722A"></path>
                            <path d="M23.2378 29.262L8.59496 12.1191C8.21401 12.6906 7.90448 13.2858 7.64258 13.9287L21.2854 29.9049C21.9759 29.762 22.6188 29.5477 23.2378 29.262Z" fill="#DD722A"></path>
                            <path d="M27.9521 25.5008L13.0712 8.07227C12.4998 8.38179 11.9521 8.71512 11.4521 9.09607L26.6902 26.9294C27.1426 26.5008 27.5712 26.0246 27.9521 25.5008Z" fill="#DD722A"></path>
                            </g>
                            <path d="M7.69066 18.4996C7.69066 12.1663 12.7145 6.99963 18.9764 6.73773C12.2859 6.47582 6.73828 11.833 6.73828 18.4996C6.73828 25.1663 12.2859 30.5234 18.9764 30.2615C12.7145 29.9996 7.69066 24.833 7.69066 18.4996Z" fill="#DD722A"></path>
                            <path d="M8.40502 26.7867C5.00026 22.6439 4.47644 16.8343 7.07168 12.1915C7.21454 11.9058 7.64311 12.1439 7.47645 12.4296C4.97645 16.9058 5.47645 22.501 8.76217 26.4772C8.97645 26.7153 8.5955 27.0248 8.40502 26.7867Z" fill="#FFAF57"></path>
                            <path d="M11.3097 29.3817C11.0478 29.2151 11.3097 28.8103 11.5716 28.977C15.0477 31.2627 19.4049 31.6436 23.1668 30.096C23.4525 29.977 23.643 30.4293 23.3573 30.5484C19.4287 32.1436 14.9049 31.7627 11.3097 29.3817Z" fill="#FFAF57"></path>
                            <path d="M26.3093 28.239C30.4045 24.9057 31.8807 19.5485 30.3807 14.7628C30.2855 14.4533 30.7379 14.3104 30.8331 14.6199C32.3807 19.5723 30.8807 25.1437 26.595 28.5961C26.3569 28.8104 26.0712 28.4533 26.3093 28.239Z" fill="#FFAF57"></path>
                            <path d="M28.4285 10.9513C23.6904 4.71325 14.5714 4.30848 9.30945 9.95134C9.09516 10.1894 8.73802 9.85611 8.95231 9.61801C14.3809 3.8323 23.8571 4.14182 28.8095 10.6656C28.9761 10.9275 28.619 11.2132 28.4285 10.9513Z" fill="#FFAF57"></path>
                            <path d="M14.3097 25.2153L13.9287 25.1201L14.1906 21.2867C14.4525 21.382 15.7144 22.2629 17.643 22.2629C18.5954 22.2629 19.7858 21.9772 19.8097 21.0486C19.8335 19.7153 17.8811 20.0724 16.143 20.001V16.7629H18.0716C20.9525 16.7629 20.1668 13.382 15.1906 15.2867L14.5954 15.5248L14.3811 12.0486C14.5954 11.9772 15.4525 11.6915 16.7144 11.501C24.5954 10.3105 25.1906 16.4772 22.3335 18.2391C23.5001 18.882 24.1192 19.9296 24.1192 21.3105C24.0716 25.5486 18.4049 26.3344 14.3097 25.2153Z" fill="#DD542F"></path>
                            <path d="M21.0711 18.2617C22.6425 18.6903 23.5949 19.6664 23.5949 21.3093C23.5949 25.2141 18.1187 25.7855 14.4282 24.7617L14.6187 22.0236C16.0473 22.7617 18.3806 23.0474 19.5711 22.2617C20.5473 21.6188 20.452 20.4046 19.7377 19.9046C18.952 19.3569 17.7377 19.5712 16.5949 19.5236V17.2141H18.0473C20.8806 17.2141 20.952 14.2379 17.9758 14.2379C16.9758 14.2379 15.952 14.4522 14.9997 14.8093L14.8568 12.3569C15.4758 12.1665 16.1187 12.0236 16.7616 11.9284C23.8092 10.8807 24.0711 15.5712 22.7854 17.1426C22.4044 17.6665 21.833 18.0236 21.0711 18.2617Z" fill="white"></path>
                            <path d="M16.7856 12.6433C18.9999 12.1671 21.5237 11.929 22.1904 14.0957C22.5713 15.4052 21.7618 16.6909 20.5952 17.0957C22.2142 16.2862 22.5475 14.31 21.3571 13.1909C20.3094 12.1671 18.1666 12.5005 16.7856 12.6433Z" fill="white"></path>
                            <path d="M21.5473 20.3809C22.5473 22.5713 21.1426 25.738 15.2378 24.0713C17.5711 24.4047 20.4997 24.7856 21.4759 22.6428C21.8092 21.9285 21.7854 21.119 21.5473 20.3809Z" fill="white"></path>
                            </svg>