<svg width="41" height="40" viewBox="0 0 41 40" fill="none" xmlns="http://www.w3.org/2000/svg">
<path d="M20.4292 40C31.4749 40 40.4292 31.0457 40.4292 20C40.4292 8.9543 31.4749 0 20.4292 0C9.3835 0 0.429199 8.9543 0.429199 20C0.429199 31.0457 9.3835 40 20.4292 40Z" fill="#F6FFED"/>
<path d="M20.9423 12H19.9153V19.7H18.3743V20.732H19.9153V28.432H20.9423V25.355H22.4833V24.328H20.9423V16.109H22.4833V15.082H20.9423V12Z" fill="#52C41A"/>
<path d="M27.4292 13.219H24.4292C23.8769 13.219 23.4292 13.6667 23.4292 14.219V17.219C23.4292 17.7713 23.8769 18.219 24.4292 18.219H27.4292C27.9815 18.219 28.4292 17.7713 28.4292 17.219V14.219C28.4292 13.6667 27.9815 13.219 27.4292 13.219Z" fill="#52C41A"/>
<path d="M27.4292 22.219H24.4292C23.8769 22.219 23.4292 22.6667 23.4292 23.219V26.219C23.4292 26.7713 23.8769 27.219 24.4292 27.219H27.4292C27.9815 27.219 28.4292 26.7713 28.4292 26.219V23.219C28.4292 22.6667 27.9815 22.219 27.4292 22.219Z" fill="#52C41A"/>
<path d="M16.4292 17.219H13.4292C12.8769 17.219 12.4292 17.6667 12.4292 18.219V22.219C12.4292 22.7713 12.8769 23.219 13.4292 23.219H16.4292C16.9815 23.219 17.4292 22.7713 17.4292 22.219V18.219C17.4292 17.6667 16.9815 17.219 16.4292 17.219Z" fill="#52C41A"/>
</svg>
